<?xml version="1.0" encoding="utf-8"?>
<!-- Generator: Adobe Illustrator 24.0.1, SVG Export Plug-In . SVG Version: 6.00 Build 0)  -->
<svg version="1.1" id="图层_1" xmlns="http://www.w3.org/2000/svg" xmlns:xlink="http://www.w3.org/1999/xlink" x="0px" y="0px"
	 viewBox="0 0 16 16" style="enable-background:new 0 0 16 16;" xml:space="preserve">
<style type="text/css">
	.st0{fill:#C30D23;}
</style>
<g>
	<path class="st0" d="M5.92,3.88l0.11-0.48c0.95-0.08,1.91-0.24,2.89-0.48C8.63,3.65,8.35,4.59,8.08,5.74L7.32,8.86
		c-0.49,2.2-1.09,3.89-1.79,5.05C6.25,14.04,6.9,14.1,7.5,14.1c1.35,0,2.51-0.33,3.48-0.98c0.97-0.65,1.69-1.5,2.16-2.54
		c0.47-1.04,0.7-2.09,0.7-3.15c0-1.68-0.5-3.03-1.5-4.03c-1-1-2.26-1.5-3.78-1.5c-1.33,0-2.58,0.31-3.74,0.93
		C3.65,3.45,2.72,4.27,2.04,5.3C1.35,6.33,1,7.35,1,8.38c0,0.93,0.42,1.63,1.26,2.09c0.38,0.23,0.57,0.47,0.57,0.71
		c0,0.15-0.07,0.31-0.21,0.46c-0.14,0.15-0.31,0.23-0.51,0.23c-0.44,0-0.87-0.33-1.29-1C0.43,10.2,0.22,9.53,0.22,8.84
		c0-1.26,0.39-2.5,1.16-3.72s1.85-2.19,3.24-2.89C6,1.52,7.52,1.17,9.16,1.17c2.01,0,3.63,0.54,4.88,1.63
		c1.25,1.09,1.87,2.48,1.87,4.18c0,1.98-0.71,3.77-2.13,5.38c-1.42,1.61-3.33,2.41-5.72,2.41c-0.55,0-1.19-0.03-1.91-0.09
		s-1.55-0.09-2.48-0.09c-0.51,0-1.04,0.01-1.61,0.02l0.28-0.55c0.78-0.03,1.34-0.23,1.67-0.61c0.33-0.38,0.64-1.11,0.93-2.22
		L6.61,4.7C6.65,4.53,6.67,4.4,6.67,4.29C6.67,3.95,6.42,3.81,5.92,3.88z"/>
</g>
</svg>
